
<svg width="662px" height="662px" viewBox="0 0 662 662" version="1.1" xmlns="http://www.w3.org/2000/svg" xmlns:xlink="http://www.w3.org/1999/xlink">
    <!-- Generator: Sketch 44.1 (41455) - http://www.bohemiancoding.com/sketch -->
    <desc>Created with Sketch.</desc>
    <defs></defs>
    <g id="Page-1" stroke="none" stroke-width="1" fill="none" fill-rule="evenodd">
        <g id="Desktop" transform="translate(-206.000000, -206.000000)" fill="#74ABDB">
            <path d="M735.3332,404.407227 L867.851947,536.925974 L536.925974,867.851947 L411.868746,742.794719 C424.912505,745.832622 439.517424,747.351562 455.683594,747.351562 C492.028177,747.351562 519.868067,740.100658 539.204102,725.598633 C558.540136,711.096607 568.208008,692.029415 568.208008,668.396484 C568.208008,651.566973 563.463589,637.065165 553.974609,624.890625 C544.48563,612.716085 531.774168,604.614766 515.839844,600.586426 C499.905519,596.558085 477.168116,593.827807 447.626953,592.395508 C420.592313,590.963209 402.867881,588.814793 394.453125,585.950195 C385.859332,583.264635 381.5625,578.609734 381.5625,571.985352 C381.5625,557.841401 400.540175,550.14291 438.496094,548.889648 C475.019714,547.636387 500.979741,538.684654 516.376953,522.03418 C531.774166,505.562743 539.472656,486.585068 539.472656,465.100586 C539.472656,448.629149 534.817755,433.053133 525.507812,418.37207 C533.743531,409.062128 541.262987,404.407227 548.066406,404.407227 C552.363303,404.407227 556.4811,407.808885 560.419922,414.612305 C564.716818,421.952836 569.819306,425.623047 575.727539,425.623047 C586.46978,425.623047 591.84082,419.714903 591.84082,407.898438 C591.84082,402.34828 589.468611,397.245792 584.724121,392.59082 C579.979631,387.935849 573.31059,385.608398 564.716797,385.608398 C549.140547,385.608398 533.743566,394.202063 518.525391,411.389648 C500.442618,392.590726 476.451972,383.191406 446.552734,383.191406 C422.382692,383.191406 401.480394,391.024173 383.845215,406.689941 C366.210036,422.35571 357.392578,441.378143 357.392578,463.757812 C357.392578,479.692137 361.68941,494.104428 370.283203,506.995117 C378.876996,519.885807 391.677975,531.344025 408.686523,541.370117 C375.922688,547.457387 359.541016,562.227747 359.541016,585.681641 C359.541016,597.856181 365.270125,607.792605 376.728516,615.491211 C388.186906,623.368854 413.162242,628.113273 451.655273,629.724609 C485.135259,631.156908 508.409765,635.45374 521.479492,642.615234 C534.549219,649.955766 541.083984,662.57771 541.083984,680.481445 C541.083984,696.773844 533.788322,710.156686 519.196777,720.630371 C504.605233,731.104056 484.24004,736.34082 458.100586,736.34082 C428.73846,736.34082 406.672437,731.193574 391.901855,720.898926 C377.131274,710.604278 369.746094,697.579506 369.746094,681.824219 C369.746094,668.21738 375.296168,655.326884 386.396484,643.152344 C384.068999,642.257157 381.472996,641.80957 378.608398,641.80957 C368.045195,641.80957 359.899117,645.300746 354.169922,652.283203 C348.898757,658.707435 346.052505,666.798656 345.631098,676.557075 L206,536.925974 L536.925974,206 L662.31209,331.386116 C658.549487,349.070558 651.619988,363.116224 641.523438,373.523438 C629.88601,385.51894 616.726961,391.695636 602.045898,392.053711 L602.045898,404.407227 L634.003906,404.407227 L634.003906,529.016602 C634.003906,554.618943 635.21239,572.52241 637.629395,582.727539 C640.046399,592.932668 646.133578,601.839643 655.891113,609.44873 C665.648649,617.057818 676.972592,620.862305 689.863281,620.862305 C700.963597,620.862305 711.929471,617.863474 722.76123,611.865723 C733.59299,605.867971 741.783826,596.960997 747.333984,585.144531 L738.740234,580.041992 C729.251255,594.723055 718.061588,602.063477 705.170898,602.063477 C698.546516,602.063477 692.325062,599.915061 686.506348,595.618164 C680.687634,591.321268 676.883147,585.636917 675.092773,578.564941 C673.3024,571.492966 672.407227,557.752055 672.407227,537.341797 L672.407227,404.407227 L735.3332,404.407227 Z M722.979685,392.053711 L672.407227,392.053711 L672.407227,341.481253 L722.979685,392.053711 Z M397.675781,469.93457 C397.675781,445.048378 401.793579,426.428773 410.029297,414.075195 C418.265015,401.721618 430.618407,395.544922 447.089844,395.544922 C460.159571,395.544922 471.886341,400.557893 482.270508,410.583984 C492.654674,420.610076 497.84668,438.871612 497.84668,465.369141 C497.84668,491.687632 492.967985,510.172961 483.210449,520.825684 C473.452913,531.478406 461.770901,536.804688 448.164062,536.804688 C433.483,536.804688 421.398159,531.433647 411.90918,520.691406 C402.4202,509.949165 397.675781,493.030389 397.675781,469.93457 Z" id="Combined-Shape"></path>
        </g>
    </g>
</svg>